<svg width="512" height="516" viewBox="0 0 512 516" fill="none" xmlns="http://www.w3.org/2000/svg">
<path d="M183.913 163.012L185.79 163.047C186.34 163.061 186.889 163.078 187.438 163.098C187.512 163.1 187.587 163.103 187.662 163.105L188.268 163.13C188.662 163.146 189.056 163.164 189.45 163.184C189.516 163.187 189.581 163.19 189.646 163.193C190.181 163.221 190.715 163.251 191.248 163.284C191.342 163.29 191.437 163.297 191.531 163.303C192.664 163.375 193.794 163.459 194.92 163.557C195.024 163.566 195.128 163.574 195.231 163.583C195.775 163.631 196.318 163.682 196.859 163.736C196.959 163.746 197.059 163.757 197.158 163.768C197.62 163.815 198.081 163.863 198.542 163.914C198.671 163.928 198.8 163.943 198.929 163.958C199.458 164.018 199.986 164.081 200.514 164.146C200.624 164.16 200.735 164.175 200.846 164.189C201.27 164.243 201.693 164.299 202.116 164.356C202.293 164.38 202.469 164.404 202.646 164.429C203.145 164.499 203.644 164.571 204.143 164.646C204.268 164.664 204.393 164.684 204.518 164.703C204.899 164.761 205.279 164.821 205.659 164.882C205.891 164.919 206.123 164.957 206.354 164.995C206.653 165.045 206.95 165.095 207.248 165.146C207.64 165.214 208.03 165.282 208.421 165.353C208.664 165.396 208.906 165.44 209.148 165.485C209.418 165.535 209.688 165.586 209.957 165.638C210.397 165.722 210.837 165.807 211.276 165.896C211.449 165.93 211.622 165.967 211.795 166.002C212.106 166.066 212.418 166.131 212.729 166.196C213.007 166.255 213.285 166.314 213.562 166.374C213.963 166.461 214.363 166.549 214.763 166.64C215.067 166.708 215.37 166.779 215.673 166.85C215.797 166.879 215.922 166.907 216.046 166.937C216.853 167.127 217.659 167.321 218.461 167.524L219.41 167.771C219.443 167.779 219.475 167.787 219.508 167.796C220.59 168.079 221.667 168.373 222.739 168.68C222.823 168.704 222.907 168.728 222.991 168.752C284.205 186.36 329.144 242.409 329.988 309.087L330 311V442H288V311C288 267.229 261.469 229.656 223.612 213.481C213.601 209.204 202.799 206.421 191.485 205.418C190.708 205.349 189.929 205.29 189.147 205.238C188.473 205.193 187.797 205.154 187.119 205.122C186.486 205.092 185.852 205.068 185.217 205.049C184.603 205.031 183.987 205.017 183.37 205.009L182 205C123.458 205 76 252.458 76 311V474H150.151C151.115 489.679 156.654 504.118 165.451 516H66.0908C48.3676 516 34 501.632 34 483.909V311C34 229.262 100.262 163 182 163L183.913 163.012Z" fill="#FF8D28"/>
<path d="M331.913 0.0117188C412.133 1.02795 476.972 65.8672 477.988 146.087L478 148V398.148L477.99 399.671C477.181 463.55 425.55 515.181 361.671 515.99L360.148 516H228.909C228.207 516 227.508 515.983 226.813 515.952C226.732 515.949 226.65 515.945 226.568 515.941C226.449 515.936 226.331 515.927 226.212 515.92C225.944 515.905 225.677 515.889 225.41 515.869C225.239 515.856 225.067 515.842 224.896 515.827C224.698 515.81 224.499 515.794 224.301 515.774C224.114 515.756 223.927 515.735 223.74 515.715C223.545 515.693 223.351 515.672 223.156 515.648C222.982 515.627 222.808 515.603 222.634 515.58C222.418 515.551 222.203 515.522 221.988 515.49C221.811 515.464 221.634 515.436 221.458 515.408C221.264 515.377 221.07 515.345 220.876 515.312C220.715 515.284 220.555 515.255 220.395 515.226C220.173 515.185 219.953 515.143 219.732 515.1C219.593 515.072 219.453 515.044 219.313 515.015C219.084 514.967 218.856 514.918 218.628 514.867C218.486 514.836 218.345 514.803 218.204 514.771C217.973 514.717 217.743 514.66 217.514 514.603C217.374 514.568 217.234 514.533 217.095 514.497C216.874 514.44 216.654 514.381 216.435 514.32C216.309 514.286 216.184 514.251 216.059 514.216C215.828 514.15 215.598 514.082 215.369 514.013C215.234 513.972 215.099 513.932 214.964 513.89C214.709 513.81 214.455 513.728 214.201 513.645C214.106 513.613 214.01 513.583 213.915 513.551C213.64 513.458 213.367 513.362 213.095 513.265C213.015 513.236 212.934 513.208 212.854 513.179C212.633 513.098 212.414 513.014 212.194 512.931C212.059 512.879 211.924 512.829 211.79 512.776C211.613 512.707 211.438 512.635 211.262 512.563C210.666 512.321 210.076 512.068 209.493 511.803C209.248 511.691 209.002 511.579 208.759 511.463C208.623 511.398 208.489 511.33 208.354 511.265C208.157 511.168 207.96 511.073 207.765 510.974C207.602 510.891 207.441 510.807 207.279 510.723C207.128 510.644 206.977 510.566 206.827 510.486C206.655 510.394 206.485 510.3 206.314 510.206C206.166 510.125 206.018 510.044 205.871 509.961C205.707 509.868 205.544 509.773 205.381 509.678C205.222 509.585 205.062 509.493 204.904 509.398C204.736 509.298 204.57 509.196 204.403 509.094C204.261 509.006 204.119 508.919 203.978 508.83C203.836 508.741 203.695 508.651 203.555 508.561C203.386 508.452 203.219 508.343 203.052 508.232C202.888 508.124 202.725 508.015 202.562 507.904C202.453 507.829 202.343 507.754 202.233 507.679C202.046 507.549 201.859 507.418 201.674 507.285C201.545 507.193 201.418 507.101 201.29 507.008C201.124 506.887 200.958 506.765 200.794 506.642C200.684 506.559 200.574 506.475 200.465 506.392C200.293 506.261 200.123 506.128 199.953 505.995C199.841 505.907 199.73 505.818 199.618 505.729C199.436 505.583 199.254 505.437 199.074 505.288C198.978 505.208 198.882 505.127 198.786 505.047C198.602 504.892 198.418 504.738 198.236 504.581C198.167 504.521 198.099 504.46 198.03 504.399C197.81 504.207 197.591 504.013 197.374 503.816C197.363 503.807 197.353 503.797 197.343 503.787C195.047 501.697 192.96 499.382 191.115 496.877C191.093 496.847 191.071 496.818 191.049 496.788C190.862 496.533 190.678 496.276 190.496 496.018C190.474 495.986 190.452 495.955 190.431 495.924C190.043 495.369 189.667 494.805 189.303 494.232C189.288 494.209 189.274 494.185 189.259 494.162C189.092 493.899 188.928 493.635 188.767 493.369C188.731 493.31 188.696 493.251 188.661 493.192C188.507 492.936 188.355 492.678 188.206 492.419C188.189 492.388 188.172 492.358 188.154 492.327C187.996 492.05 187.84 491.772 187.688 491.492C187.67 491.46 187.653 491.428 187.636 491.396C184.133 484.928 182.103 477.546 182.004 469.697L182 469.091V237C197.598 237 212.068 241.826 224 250.065V469.091C224 471.802 226.198 474 228.909 474H360.148C360.767 474 361.385 473.992 362 473.978C379.944 473.548 396.343 466.886 409.119 456.074C410.083 455.259 411.026 454.42 411.947 453.559C412.627 452.922 413.295 452.273 413.951 451.612C414.314 451.248 414.673 450.88 415.028 450.508C415.12 450.412 415.211 450.314 415.302 450.218C415.432 450.08 415.563 449.943 415.692 449.805C416.143 449.32 416.586 448.829 417.024 448.333C417.364 447.949 417.7 447.561 418.031 447.17C420.065 444.771 421.952 442.244 423.679 439.603C423.947 439.192 424.212 438.778 424.473 438.362C430.172 429.265 433.996 418.873 435.4 407.728C435.693 405.407 435.879 403.054 435.957 400.673C435.984 399.835 436 398.993 436 398.148V148C436 89.4578 388.542 42 330 42C275.485 42 230.583 83.1537 224.663 136.089C211.707 132.94 198.202 131.191 184.318 131.015L184.214 131.013H184.109L182.965 131.005C191.395 57.271 254.009 -8.52947e-07 330 0L331.913 0.0117188Z" fill="#FF8D28"/>
</svg>
